<?xml version="1.0" encoding="UTF-8"?>
<!DOCTYPE svg PUBLIC "-//W3C//DTD SVG 1.1//EN" "http://www.w3.org/Graphics/SVG/1.1/DTD/svg11.dtd">
<svg xmlns="http://www.w3.org/2000/svg" version="1.1" width="400px" height="143px" style="shape-rendering:geometricPrecision; text-rendering:geometricPrecision; image-rendering:optimizeQuality; fill-rule:evenodd; clip-rule:evenodd" xmlns:xlink="http://www.w3.org/1999/xlink">
<g><path style="opacity:1" fill="#52bdec" d="M -0.5,-0.5 C 132.833,-0.5 266.167,-0.5 399.5,-0.5C 399.5,4.16667 399.5,8.83333 399.5,13.5C 270.833,13.5 142.167,13.5 13.5,13.5C 13.5,56.5 13.5,99.5 13.5,142.5C 8.83333,142.5 4.16667,142.5 -0.5,142.5C -0.5,94.8333 -0.5,47.1667 -0.5,-0.5 Z"/></g>
<g><path style="opacity:1" fill="#1e6ea4" d="M 399.5,13.5 C 399.5,13.8333 399.5,14.1667 399.5,14.5C 271.167,14.5 142.833,14.5 14.5,14.5C 14.5,57.1667 14.5,99.8333 14.5,142.5C 14.1667,142.5 13.8333,142.5 13.5,142.5C 13.5,99.5 13.5,56.5 13.5,13.5C 142.167,13.5 270.833,13.5 399.5,13.5 Z"/></g>
<g><path style="opacity:1" fill="#003570" d="M 399.5,14.5 C 399.5,14.8333 399.5,15.1667 399.5,15.5C 271.5,15.5 143.5,15.5 15.5,15.5C 15.5,57.8333 15.5,100.167 15.5,142.5C 15.1667,142.5 14.8333,142.5 14.5,142.5C 14.5,99.8333 14.5,57.1667 14.5,14.5C 142.833,14.5 271.167,14.5 399.5,14.5 Z"/></g>
<g><path style="opacity:1" fill="#02407a" d="M 399.5,15.5 C 399.5,57.8333 399.5,100.167 399.5,142.5C 271.5,142.5 143.5,142.5 15.5,142.5C 15.5,100.167 15.5,57.8333 15.5,15.5C 143.5,15.5 271.5,15.5 399.5,15.5 Z"/></g>
<g><path style="opacity:1" fill="#f9fafc" d="M 84.5,98.5 C 79.3595,99.4881 74.0262,99.8214 68.5,99.5C 65.5891,93.9182 62.2558,88.5849 58.5,83.5C 57.6667,84.5 56.8333,85.5 56,86.5C 55.501,90.8206 55.3343,95.1539 55.5,99.5C 51.1667,99.5 46.8333,99.5 42.5,99.5C 42.5,85.1667 42.5,70.8333 42.5,56.5C 46.8333,56.5 51.1667,56.5 55.5,56.5C 55.3342,61.1785 55.5008,65.8452 56,70.5C 59.1375,65.7286 62.6375,61.2286 66.5,57C 71.8333,56.3333 77.1667,56.3333 82.5,57C 77.6168,62.5946 72.6168,68.0946 67.5,73.5C 73.424,81.6889 79.0907,90.0223 84.5,98.5 Z"/></g>
<g><path style="opacity:1" fill="#fcfcfd" d="M 85.5,57.5 C 89.5,57.5 93.5,57.5 97.5,57.5C 97.1734,66.6822 97.5067,75.6822 98.5,84.5C 99.6179,89.2537 102.618,90.7537 107.5,89C 108.333,88.1667 109.167,87.3333 110,86.5C 110.5,76.8391 110.666,67.1724 110.5,57.5C 114.5,57.5 118.5,57.5 122.5,57.5C 122.5,67.5 122.5,77.5 122.5,87.5C 121.63,93.5461 118.297,97.7128 112.5,100C 107.167,100.667 101.833,100.667 96.5,100C 91,98.5 87.5,95 86,89.5C 85.5002,78.8385 85.3335,68.1719 85.5,57.5 Z"/></g>
<g><path style="opacity:1" fill="#84a2be" d="M 155.5,88.5 C 154.506,78.3468 154.172,68.0135 154.5,57.5C 150.5,57.5 146.5,57.5 142.5,57.5C 142.5,71.5 142.5,85.5 142.5,99.5C 152.5,99.5 162.5,99.5 172.5,99.5C 162.347,100.494 152.014,100.828 141.5,100.5C 141.5,85.8333 141.5,71.1667 141.5,56.5C 146.167,56.5 150.833,56.5 155.5,56.5C 155.5,67.1667 155.5,77.8333 155.5,88.5 Z"/></g>
<g><path style="opacity:1" fill="#fcfdfd" d="M 155.5,88.5 C 161.167,88.5 166.833,88.5 172.5,88.5C 172.5,92.1667 172.5,95.8333 172.5,99.5C 162.5,99.5 152.5,99.5 142.5,99.5C 142.5,85.5 142.5,71.5 142.5,57.5C 146.5,57.5 150.5,57.5 154.5,57.5C 154.172,68.0135 154.506,78.3468 155.5,88.5 Z"/></g>
<g><path style="opacity:1" fill="#fbfcfd" d="M 210.5,57.5 C 210.5,60.8333 210.5,64.1667 210.5,67.5C 203.5,67.5 196.5,67.5 189.5,67.5C 189.5,69.1667 189.5,70.8333 189.5,72.5C 195.833,72.5 202.167,72.5 208.5,72.5C 208.5,76.1667 208.5,79.8333 208.5,83.5C 202.167,83.5 195.833,83.5 189.5,83.5C 189.5,85.1667 189.5,86.8333 189.5,88.5C 196.313,89.4912 203.313,89.8245 210.5,89.5C 210.5,92.8333 210.5,96.1667 210.5,99.5C 199.5,99.5 188.5,99.5 177.5,99.5C 177.5,85.5 177.5,71.5 177.5,57.5C 188.5,57.5 199.5,57.5 210.5,57.5 Z"/></g>
<g><path style="opacity:1" fill="#f9fafb" d="M 214.5,56.5 C 218.833,56.5 223.167,56.5 227.5,56.5C 227.334,66.1724 227.5,75.8391 228,85.5C 229.691,89.2127 232.525,90.3794 236.5,89C 237.701,88.0975 238.535,86.9308 239,85.5C 239.5,75.8391 239.666,66.1724 239.5,56.5C 243.833,56.5 248.167,56.5 252.5,56.5C 252.667,67.505 252.5,78.505 252,89.5C 248.478,97.7683 242.144,101.435 233,100.5C 224.272,101.142 218.272,97.4755 215,89.5C 214.5,78.505 214.333,67.505 214.5,56.5 Z"/></g>
<g><path style="opacity:1" fill="#f8fafb" d="M 254.5,56.5 C 258.884,56.1744 263.217,56.5078 267.5,57.5C 269.2,65.3013 271.367,72.9679 274,80.5C 276.231,72.8436 278.397,65.1769 280.5,57.5C 284.833,56.1667 289.167,56.1667 293.5,57.5C 288.891,71.3281 284.891,85.3281 281.5,99.5C 276.238,99.8047 271.072,99.4714 266,98.5C 262.267,84.4685 258.434,70.4685 254.5,56.5 Z"/></g>
<g><path style="opacity:1" fill="#f9fbfc" d="M 308.5,88.5 C 315.313,89.4912 322.313,89.8245 329.5,89.5C 329.5,92.8333 329.5,96.1667 329.5,99.5C 318.167,99.5 306.833,99.5 295.5,99.5C 295.5,85.1667 295.5,70.8333 295.5,56.5C 306.833,56.5 318.167,56.5 329.5,56.5C 329.5,60.1667 329.5,63.8333 329.5,67.5C 322.5,67.5 315.5,67.5 308.5,67.5C 308.5,69.1667 308.5,70.8333 308.5,72.5C 314.833,72.5 321.167,72.5 327.5,72.5C 327.5,76.1667 327.5,79.8333 327.5,83.5C 321.167,83.5 314.833,83.5 308.5,83.5C 308.5,85.1667 308.5,86.8333 308.5,88.5 Z"/></g>
<g><path style="opacity:1" fill="#fdfdfd" d="M 347.5,57.5 C 350.847,64.1932 354.18,70.8599 357.5,77.5C 357.56,78.0431 357.893,78.3764 358.5,78.5C 359.497,71.5316 359.83,64.5316 359.5,57.5C 363.167,57.5 366.833,57.5 370.5,57.5C 370.5,71.5 370.5,85.5 370.5,99.5C 366.069,99.7693 361.735,99.436 357.5,98.5C 354.434,92.0356 351.101,85.7022 347.5,79.5C 347.217,78.7109 346.717,78.0442 346,77.5C 345.5,84.8258 345.334,92.1591 345.5,99.5C 341.833,99.5 338.167,99.5 334.5,99.5C 334.5,85.5 334.5,71.5 334.5,57.5C 338.833,57.5 343.167,57.5 347.5,57.5 Z"/></g>
<g><path style="opacity:1" fill="#dbe4ec" d="M 210.5,57.5 C 199.5,57.5 188.5,57.5 177.5,57.5C 177.5,71.5 177.5,85.5 177.5,99.5C 176.504,85.3431 176.171,71.0097 176.5,56.5C 188.012,56.1719 199.346,56.5052 210.5,57.5 Z"/></g>
<g><path style="opacity:1" fill="#d4dfe9" d="M 347.5,57.5 C 343.167,57.5 338.833,57.5 334.5,57.5C 334.5,71.5 334.5,85.5 334.5,99.5C 333.504,85.3431 333.171,71.0097 333.5,56.5C 338.363,56.1805 343.03,56.5139 347.5,57.5 Z"/></g>
<g><path style="opacity:1" fill="#bdcddc" d="M 85.5,57.5 C 89.6344,56.5151 93.9677,56.1818 98.5,56.5C 98.5,65.8333 98.5,75.1667 98.5,84.5C 97.5067,75.6822 97.1734,66.6822 97.5,57.5C 93.5,57.5 89.5,57.5 85.5,57.5 Z"/></g>
<g><path style="opacity:1" fill="#c2d1df" d="M 110.5,57.5 C 114.634,56.5151 118.968,56.1818 123.5,56.5C 123.828,67.0135 123.494,77.3468 122.5,87.5C 122.5,77.5 122.5,67.5 122.5,57.5C 118.5,57.5 114.5,57.5 110.5,57.5 Z"/></g>
<g><path style="opacity:1" fill="#b7c8d9" d="M 371.5,99.5 C 371.167,99.5 370.833,99.5 370.5,99.5C 370.5,85.5 370.5,71.5 370.5,57.5C 366.833,57.5 363.167,57.5 359.5,57.5C 359.83,64.5316 359.497,71.5316 358.5,78.5C 357.893,78.3764 357.56,78.0431 357.5,77.5C 358.491,70.6866 358.825,63.6866 358.5,56.5C 362.833,56.5 367.167,56.5 371.5,56.5C 371.5,70.8333 371.5,85.1667 371.5,99.5 Z"/></g>
<g><path style="opacity:1" fill="#44729d" d="M 347.5,79.5 C 346.833,86.1667 346.167,92.8333 345.5,99.5C 345.334,92.1591 345.5,84.8258 346,77.5C 346.717,78.0442 347.217,78.7109 347.5,79.5 Z"/></g>
<g><path style="opacity:1" fill="#ccd8e4" d="M 189.5,88.5 C 196.833,88.5 204.167,88.5 211.5,88.5C 211.815,92.3714 211.482,96.0381 210.5,99.5C 210.5,96.1667 210.5,92.8333 210.5,89.5C 203.313,89.8245 196.313,89.4912 189.5,88.5 Z"/></g>
<g><path style="opacity:1" fill="#c9d6e2" d="M 308.5,88.5 C 315.833,88.5 323.167,88.5 330.5,88.5C 330.815,92.3714 330.482,96.0381 329.5,99.5C 329.5,96.1667 329.5,92.8333 329.5,89.5C 322.313,89.8245 315.313,89.4912 308.5,88.5 Z"/></g>
<g><path style="opacity:1" fill="#4c78a1" d="M 84.5,98.5 C 85.0431,98.56 85.3764,98.8933 85.5,99.5C 79.6796,100.816 74.0129,100.816 68.5,99.5C 74.0262,99.8214 79.3595,99.4881 84.5,98.5 Z"/></g>
<g><path style="opacity:1" fill="#4d78a1" d="M 357.5,98.5 C 361.735,99.436 366.069,99.7693 370.5,99.5C 370.833,99.5 371.167,99.5 371.5,99.5C 369.359,100.163 367.025,100.497 364.5,100.5C 361.731,100.471 359.397,99.8048 357.5,98.5 Z"/></g>
</svg>
