<?xml version="1.0" encoding="UTF-8"?>
<!DOCTYPE svg PUBLIC "-//W3C//DTD SVG 1.1//EN" "http://www.w3.org/Graphics/SVG/1.1/DTD/svg11.dtd">
<svg xmlns="http://www.w3.org/2000/svg" version="1.1" width="680px" height="638px" style="shape-rendering:geometricPrecision; text-rendering:geometricPrecision; image-rendering:optimizeQuality; fill-rule:evenodd; clip-rule:evenodd" xmlns:xlink="http://www.w3.org/1999/xlink">
<g><path style="opacity:1" fill="#fefefe" d="M -0.5,-0.5 C 226.167,-0.5 452.833,-0.5 679.5,-0.5C 679.5,212.167 679.5,424.833 679.5,637.5C 452.833,637.5 226.167,637.5 -0.5,637.5C -0.5,424.833 -0.5,212.167 -0.5,-0.5 Z"/></g>
<g><path style="opacity:1" fill="#69b8fe" d="M 296.5,155.5 C 290.343,170.971 285.01,186.638 280.5,202.5C 280.662,200.473 280.495,198.473 280,196.5C 266.133,152.232 251.466,108.232 236,64.5C 233.623,58.238 230.123,52.738 225.5,48C 219.294,44.1745 213.794,45.0078 209,50.5C 205.493,55.5095 202.493,60.8428 200,66.5C 193.765,82.9704 188.099,99.637 183,116.5C 175.465,143.74 167.631,170.74 159.5,197.5C 154.434,182.684 148.767,168.017 142.5,153.5C 149.995,128.173 157.829,102.84 166,77.5C 172.137,59.5623 180.137,42.5623 190,26.5C 194.875,19.9578 200.708,14.4578 207.5,10C 218.499,5.63357 228.499,7.30024 237.5,15C 251.82,32.7975 262.653,52.6309 270,74.5C 278.771,101.645 287.605,128.645 296.5,155.5 Z"/></g>
<g><path style="opacity:1" fill="#69b8fe" d="M 546.5,150.5 C 539.812,166.566 534.146,182.899 529.5,199.5C 517.989,157.799 505.156,116.466 491,75.5C 487.801,66.5615 483.467,58.2282 478,50.5C 470.677,44.6655 464.01,45.3322 458,52.5C 453.473,60.2212 449.473,68.2212 446,76.5C 432.253,116.83 419.753,157.497 408.5,198.5C 403.642,182.261 397.975,166.261 391.5,150.5C 392.558,149.4 393.392,148.066 394,146.5C 402.81,110.736 414.81,76.0698 430,42.5C 434.821,33.0266 440.987,24.5266 448.5,17C 466.091,3.94441 481.591,6.11107 495,23.5C 505.501,39.5009 514.168,56.5009 521,74.5C 530.138,99.7645 538.638,125.098 546.5,150.5 Z"/></g>
<g><path style="opacity:1" fill="#fefefe" d="M 280.5,202.5 C 267.867,247.235 253.701,291.568 238,335.5C 235.366,341.272 231.866,346.439 227.5,351C 220.61,355.111 214.777,353.944 210,347.5C 205.239,339.886 201.239,331.886 198,323.5C 183.723,281.957 170.89,239.957 159.5,197.5C 167.631,170.74 175.465,143.74 183,116.5C 188.099,99.637 193.765,82.9704 200,66.5C 202.493,60.8428 205.493,55.5095 209,50.5C 213.794,45.0078 219.294,44.1745 225.5,48C 230.123,52.738 233.623,58.238 236,64.5C 251.466,108.232 266.133,152.232 280,196.5C 280.495,198.473 280.662,200.473 280.5,202.5 Z"/></g>
<g><path style="opacity:1" fill="#fefefe" d="M 529.5,199.5 C 517.746,244.603 504.246,289.269 489,333.5C 486.589,339.329 483.422,344.662 479.5,349.5C 472.258,356.621 465.758,355.955 460,347.5C 456.473,341.779 453.473,335.779 451,329.5C 436.127,286.049 421.961,242.382 408.5,198.5C 419.753,157.497 432.253,116.83 446,76.5C 449.473,68.2212 453.473,60.2212 458,52.5C 464.01,45.3322 470.677,44.6655 478,50.5C 483.467,58.2282 487.801,66.5615 491,75.5C 505.156,116.466 517.989,157.799 529.5,199.5 Z"/></g>
<g><path style="opacity:1" fill="#051ba8" d="M 142.5,153.5 C 148.767,168.017 154.434,182.684 159.5,197.5C 170.89,239.957 183.723,281.957 198,323.5C 201.239,331.886 205.239,339.886 210,347.5C 214.777,353.944 220.61,355.111 227.5,351C 231.866,346.439 235.366,341.272 238,335.5C 253.701,291.568 267.867,247.235 280.5,202.5C 285.01,186.638 290.343,170.971 296.5,155.5C 303.059,138.449 311.559,122.449 322,107.5C 337.028,90.5945 352.361,90.2612 368,106.5C 378.179,119.854 386.012,134.521 391.5,150.5C 397.975,166.261 403.642,182.261 408.5,198.5C 421.961,242.382 436.127,286.049 451,329.5C 453.473,335.779 456.473,341.779 460,347.5C 465.758,355.955 472.258,356.621 479.5,349.5C 483.422,344.662 486.589,339.329 489,333.5C 504.246,289.269 517.746,244.603 529.5,199.5C 534.146,182.899 539.812,166.566 546.5,150.5C 554.183,129.943 566.183,112.443 582.5,98C 590.315,93.7328 598.315,93.3995 606.5,97C 622.873,111.239 635.206,128.405 643.5,148.5C 649.838,162.191 655.172,176.191 659.5,190.5C 666.774,219.203 672.774,248.203 677.5,277.5C 676.455,279.205 675.122,280.705 673.5,282C 667.331,285.584 661.331,289.417 655.5,293.5C 652.322,276.008 648.989,258.675 645.5,241.5C 642.705,224.981 638.372,208.981 632.5,193.5C 627.286,174.903 618.286,158.403 605.5,144C 598.355,138.483 591.021,138.15 583.5,143C 576.68,150.798 571.513,159.631 568,169.5C 565.494,177.531 562.994,185.531 560.5,193.5C 555.635,211.126 550.635,228.792 545.5,246.5C 538.037,276.608 528.87,306.275 518,335.5C 512.241,350.352 504.908,364.352 496,377.5C 487.582,388.861 476.415,393.361 462.5,391C 455.865,388.37 450.365,384.203 446,378.5C 436.166,363.833 428.166,348.166 422,331.5C 411.978,302.268 402.478,272.934 393.5,243.5C 388.871,228.61 383.871,213.943 378.5,199.5C 374.486,183.959 368.986,168.959 362,154.5C 359.44,149.884 356.273,145.718 352.5,142C 347.994,139.186 343.327,138.853 338.5,141C 335.296,143.869 332.463,147.035 330,150.5C 321.421,166.742 314.921,183.742 310.5,201.5C 305.469,216.937 300.803,232.603 296.5,248.5C 286.144,288.402 272.31,327.069 255,364.5C 249.158,375.043 240.991,383.21 230.5,389C 220.295,393.315 210.962,391.982 202.5,385C 191.945,374.056 183.779,361.556 178,347.5C 164.576,315.056 153.076,282.056 143.5,248.5C 139.598,233.135 134.931,218.135 129.5,203.5C 123.796,185.421 116.963,167.754 109,150.5C 98.3333,134.5 87.6667,134.5 77,150.5C 67.8823,168.024 61.049,186.357 56.5,205.5C 52.0833,220.602 48.0833,235.935 44.5,251.5C 41.3743,266.462 38.3743,281.462 35.5,296.5C 28.5295,292.029 21.6962,287.362 15,282.5C 14.7858,275.774 15.4525,269.107 17,262.5C 20.8489,243.088 25.0156,223.755 29.5,204.5C 33.8708,188.718 38.8708,173.051 44.5,157.5C 48.9222,141.057 55.7556,125.723 65,111.5C 81.8245,89.9242 99.8245,88.9242 119,108.5C 128.929,122.356 136.762,137.356 142.5,153.5 Z"/></g>
<g><path style="opacity:1" fill="#6ab8fe" d="M 659.5,190.5 C 655.172,176.191 649.838,162.191 643.5,148.5C 644.222,148.082 644.722,147.416 645,146.5C 647.72,132.18 650.22,117.847 652.5,103.5C 660.74,107.294 668.407,112.128 675.5,118C 671.873,142.645 666.54,166.811 659.5,190.5 Z"/></g>
<g><path style="opacity:1" fill="#6ab8fe" d="M 44.5,157.5 C 38.8708,173.051 33.8708,188.718 29.5,204.5C 26.8768,197.013 24.7101,189.347 23,181.5C 19.2059,161.635 15.3726,141.801 11.5,122C 11.7591,120.739 12.4258,119.739 13.5,119C 20.2996,115.031 26.9663,110.865 33.5,106.5C 36.5284,123.757 40.1951,140.757 44.5,157.5 Z"/></g>
<g><path style="opacity:1" fill="#fdfdfe" d="M 129.5,203.5 C 125.284,218.647 119.784,233.314 113,247.5C 102.273,263.935 90.6068,264.602 78,249.5C 68.6365,235.911 61.4699,221.245 56.5,205.5C 61.049,186.357 67.8823,168.024 77,150.5C 87.6667,134.5 98.3333,134.5 109,150.5C 116.963,167.754 123.796,185.421 129.5,203.5 Z"/></g>
<g><path style="opacity:1" fill="#fdfdfe" d="M 378.5,199.5 C 373.402,216.698 366.902,233.365 359,249.5C 349.208,263.975 339.542,263.975 330,249.5C 322.398,233.841 315.898,217.841 310.5,201.5C 314.921,183.742 321.421,166.742 330,150.5C 332.463,147.035 335.296,143.869 338.5,141C 343.327,138.853 347.994,139.186 352.5,142C 356.273,145.718 359.44,149.884 362,154.5C 368.986,168.959 374.486,183.959 378.5,199.5 Z"/></g>
<g><path style="opacity:1" fill="#fdfefe" d="M 632.5,193.5 C 627.893,212.152 621.393,230.152 613,247.5C 610.766,251.458 607.933,254.958 604.5,258C 598.254,261.564 592.254,261.231 586.5,257C 584.212,254.257 582.045,251.423 580,248.5C 572.882,232.481 566.549,216.148 561,199.5C 560.505,197.527 560.338,195.527 560.5,193.5C 562.994,185.531 565.494,177.531 568,169.5C 571.513,159.631 576.68,150.798 583.5,143C 591.021,138.15 598.355,138.483 605.5,144C 618.286,158.403 627.286,174.903 632.5,193.5 Z"/></g>
<g><path style="opacity:1" fill="#69b8fe" d="M 560.5,193.5 C 560.338,195.527 560.505,197.527 561,199.5C 566.549,216.148 572.882,232.481 580,248.5C 582.045,251.423 584.212,254.257 586.5,257C 592.254,261.231 598.254,261.564 604.5,258C 607.933,254.958 610.766,251.458 613,247.5C 621.393,230.152 627.893,212.152 632.5,193.5C 638.372,208.981 642.705,224.981 645.5,241.5C 641.93,250.361 638.43,259.361 635,268.5C 629.729,282.249 621.229,293.416 609.5,302C 599.999,306.876 590.665,306.542 581.5,301C 572.86,294.697 566.027,286.863 561,277.5C 556.08,266.817 550.914,256.484 545.5,246.5C 550.635,228.792 555.635,211.126 560.5,193.5 Z"/></g>
<g><path style="opacity:1" fill="#69b7fe" d="M 378.5,199.5 C 383.871,213.943 388.871,228.61 393.5,243.5C 386.25,260.666 377.416,276.999 367,292.5C 350.338,309.117 334.338,308.45 319,290.5C 316.333,286.5 313.667,282.5 311,278.5C 306.376,268.256 301.543,258.256 296.5,248.5C 300.803,232.603 305.469,216.937 310.5,201.5C 315.898,217.841 322.398,233.841 330,249.5C 339.542,263.975 349.208,263.975 359,249.5C 366.902,233.365 373.402,216.698 378.5,199.5 Z"/></g>
<g><path style="opacity:1" fill="#69b8fe" d="M 129.5,203.5 C 134.931,218.135 139.598,233.135 143.5,248.5C 137.055,264.058 128.555,278.391 118,291.5C 102.596,309.633 86.9291,309.966 71,292.5C 61.1458,279.449 52.3124,265.783 44.5,251.5C 48.0833,235.935 52.0833,220.602 56.5,205.5C 61.4699,221.245 68.6365,235.911 78,249.5C 90.6068,264.602 102.273,263.935 113,247.5C 119.784,233.314 125.284,218.647 129.5,203.5 Z"/></g>
<g><path style="opacity:1" fill="#1a91ff" d="M 225.5,414.5 C 255.048,411.508 282.548,417.508 308,432.5C 308.667,433.833 308.667,435.167 308,436.5C 301.392,453.496 294.892,470.496 288.5,487.5C 282.019,483.902 275.352,480.402 268.5,477C 258.944,472.739 248.944,471.405 238.5,473C 232.334,476.656 230.834,481.822 234,488.5C 234.903,489.701 236.069,490.535 237.5,491C 249.124,494.156 260.791,497.156 272.5,500C 292.837,506.337 305.67,519.837 311,540.5C 316.597,590.498 295.097,621.665 246.5,634C 211.36,638.563 179.026,631.063 149.5,611.5C 156.691,592.083 164.358,572.917 172.5,554C 181.825,559.506 191.492,564.839 201.5,570C 210.825,574.471 220.492,575.471 230.5,573C 236.943,569.944 238.776,565.111 236,558.5C 234.269,556.383 232.102,554.883 229.5,554C 216.143,550.661 202.81,547.327 189.5,544C 177.497,540.663 169.33,533.163 165,521.5C 158.728,500.713 159.061,480.047 166,459.5C 178.266,434.39 198.099,419.39 225.5,414.5 Z"/></g>
<g><path style="opacity:1" fill="#55afff" d="M 5.5,419.5 C 49.3302,418.501 93.3302,418.168 137.5,418.5C 137.5,437.833 137.5,457.167 137.5,476.5C 116.833,476.5 96.1667,476.5 75.5,476.5C 95.6598,475.503 115.993,475.17 136.5,475.5C 136.5,456.833 136.5,438.167 136.5,419.5C 92.8333,419.5 49.1667,419.5 5.5,419.5 Z"/></g>
<g><path style="opacity:1" fill="#56afff" d="M 459.5,420.5 C 432.833,419.167 406.167,419.167 379.5,420.5C 392.483,419.167 405.816,418.501 419.5,418.5C 433.184,418.501 446.517,419.167 459.5,420.5 Z"/></g>
<g><path style="opacity:1" fill="#59b0ff" d="M 674.5,419.5 C 624.833,419.5 575.167,419.5 525.5,419.5C 525.5,442.167 525.5,464.833 525.5,487.5C 538.677,487.171 551.677,487.505 564.5,488.5C 551.167,488.5 537.833,488.5 524.5,488.5C 524.5,465.167 524.5,441.833 524.5,418.5C 574.669,418.168 624.669,418.501 674.5,419.5 Z"/></g>
<g><path style="opacity:1" fill="#1891ff" d="M 5.5,419.5 C 49.1667,419.5 92.8333,419.5 136.5,419.5C 136.5,438.167 136.5,456.833 136.5,475.5C 115.993,475.17 95.6598,475.503 75.5,476.5C 75.5,483.167 75.5,489.833 75.5,496.5C 94.1667,496.5 112.833,496.5 131.5,496.5C 131.5,514.5 131.5,532.5 131.5,550.5C 112.833,550.5 94.1667,550.5 75.5,550.5C 75.5,557.833 75.5,565.167 75.5,572.5C 96.8333,572.5 118.167,572.5 139.5,572.5C 139.5,591.5 139.5,610.5 139.5,629.5C 94.8333,629.5 50.1667,629.5 5.5,629.5C 5.5,559.5 5.5,489.5 5.5,419.5 Z"/></g>
<g><path style="opacity:1" fill="#1991ff" d="M 459.5,420.5 C 482.358,489.74 505.024,559.074 527.5,628.5C 502.339,629.498 477.005,629.831 451.5,629.5C 450.092,620.688 448.092,612.022 445.5,603.5C 427.5,603.5 409.5,603.5 391.5,603.5C 390.109,611.913 388.442,620.246 386.5,628.5C 361.069,629.827 335.736,629.827 310.5,628.5C 333.102,559.026 356.102,489.693 379.5,420.5C 406.167,419.167 432.833,419.167 459.5,420.5 Z"/></g>
<g><path style="opacity:1" fill="#1790ff" d="M 674.5,419.5 C 674.5,442.167 674.5,464.833 674.5,487.5C 661.167,487.5 647.833,487.5 634.5,487.5C 634.5,534.833 634.5,582.167 634.5,629.5C 611.167,629.5 587.833,629.5 564.5,629.5C 564.5,582.5 564.5,535.5 564.5,488.5C 551.677,487.505 538.677,487.171 525.5,487.5C 525.5,464.833 525.5,442.167 525.5,419.5C 575.167,419.5 624.833,419.5 674.5,419.5 Z"/></g>
<g><path style="opacity:1" fill="#fbfdff" d="M 432.5,549.5 C 432.5,550.5 432.5,551.5 432.5,552.5C 422.985,552.827 413.652,552.494 404.5,551.5C 409.22,528.862 414.053,506.196 419,483.5C 423.316,505.581 427.816,527.581 432.5,549.5 Z"/></g>
<g><path style="opacity:1" fill="#83c4ff" d="M 674.5,487.5 C 661.677,488.495 648.677,488.829 635.5,488.5C 635.832,535.67 635.499,582.67 634.5,629.5C 634.5,582.167 634.5,534.833 634.5,487.5C 647.833,487.5 661.167,487.5 674.5,487.5 Z"/></g>
<g><path style="opacity:1" fill="#82c3ff" d="M 432.5,549.5 C 433.434,550.568 433.768,551.901 433.5,553.5C 423.478,553.832 413.478,553.499 403.5,552.5C 403.624,551.893 403.957,551.56 404.5,551.5C 413.652,552.494 422.985,552.827 432.5,552.5C 432.5,551.5 432.5,550.5 432.5,549.5 Z"/></g>
<g><path style="opacity:1" fill="#c1e1ff" d="M 310.5,628.5 C 335.736,629.827 361.069,629.827 386.5,628.5C 374.018,629.833 361.185,630.499 348,630.5C 335.167,630.167 322.333,629.833 309.5,629.5C 309.624,628.893 309.957,628.56 310.5,628.5 Z"/></g>
<g><path style="opacity:1" fill="#c2e2ff" d="M 527.5,628.5 C 528.043,628.56 528.376,628.893 528.5,629.5C 502.67,630.829 477.003,630.829 451.5,629.5C 477.005,629.831 502.339,629.498 527.5,628.5 Z"/></g>
</svg>
