<?xml version="1.0" encoding="UTF-8"?>
<!DOCTYPE svg PUBLIC "-//W3C//DTD SVG 1.1//EN" "http://www.w3.org/Graphics/SVG/1.1/DTD/svg11.dtd">
<svg xmlns="http://www.w3.org/2000/svg" version="1.1" width="4219px" height="4219px" style="shape-rendering:geometricPrecision; text-rendering:geometricPrecision; image-rendering:optimizeQuality; fill-rule:evenodd; clip-rule:evenodd" xmlns:xlink="http://www.w3.org/1999/xlink">
<g><path style="opacity:1" fill="#fefefe" d="M -0.5,-0.5 C 1405.83,-0.5 2812.17,-0.5 4218.5,-0.5C 4218.5,1405.83 4218.5,2812.17 4218.5,4218.5C 2812.17,4218.5 1405.83,4218.5 -0.5,4218.5C -0.5,2812.17 -0.5,1405.83 -0.5,-0.5 Z"/></g>
<g><path style="opacity:1" fill="#01329a" d="M 581.5,576.5 C 1601.5,576.5 2621.5,576.5 3641.5,576.5C 3641.5,577.167 3641.5,577.833 3641.5,578.5C 2622.17,578.667 1602.83,578.5 583.5,578C 582.584,577.722 581.918,577.222 581.5,576.5 Z"/></g>
<g><path style="opacity:1" fill="#013394" d="M 580.5,576.5 C 580.833,576.5 581.167,576.5 581.5,576.5C 581.918,577.222 582.584,577.722 583.5,578C 1602.83,578.5 2622.17,578.667 3641.5,578.5C 3641.5,579.167 3641.5,579.833 3641.5,580.5C 2621.24,579.5 1600.9,579.167 580.5,579.5C 580.5,578.5 580.5,577.5 580.5,576.5 Z"/></g>
<g><path style="opacity:1" fill="#00329c" d="M 580.5,576.5 C 580.5,577.5 580.5,578.5 580.5,579.5C 1600.9,579.167 2621.24,579.5 3641.5,580.5C 3641.5,580.833 3641.5,581.167 3641.5,581.5C 2622.21,580.334 1602.87,580.167 583.5,581C 582.333,581.5 581.5,582.333 581,583.5C 580.5,852.833 580.333,1122.17 580.5,1391.5C 579.667,1120.33 579.167,849 579,577.5C 578.329,578.252 577.496,578.586 576.5,578.5C 577.183,576.824 578.517,576.157 580.5,576.5 Z"/></g>
<g><path style="opacity:1" fill="#033394" d="M 3641.5,581.5 C 3641.5,581.833 3641.5,582.167 3641.5,582.5C 3640.83,582.5 3640.5,582.833 3640.5,583.5C 3640.17,583.5 3639.83,583.5 3639.5,583.5C 2621,582.333 1602.33,582.167 583.5,583C 582.667,852.764 582.167,1122.6 582,1392.5C 581.617,1391.94 581.117,1391.61 580.5,1391.5C 580.333,1122.17 580.5,852.833 581,583.5C 581.5,582.333 582.333,581.5 583.5,581C 1602.87,580.167 2622.21,580.334 3641.5,581.5 Z"/></g>
<g><path style="opacity:1" fill="#00349a" d="M 580.5,1391.5 C 581.117,1391.61 581.617,1391.94 582,1392.5C 582.167,1122.6 582.667,852.764 583.5,583C 1602.33,582.167 2621,582.333 3639.5,583.5C 3639.5,1602.17 3639.5,2620.83 3639.5,3639.5C 2620.83,3639.5 1602.17,3639.5 583.5,3639.5C 582.834,3158.36 583.501,2677.36 585.5,2196.5C 584.261,2194.69 583.594,2192.69 583.5,2190.5C 584.541,2188.12 584.541,2185.79 583.5,2183.5C 584.547,2181.94 585.214,2180.28 585.5,2178.5C 665.408,2392.88 744.741,2607.55 823.5,2822.5C 866.495,2823.83 909.828,2824.5 953.5,2824.5C 997.001,2824.5 1040.33,2824.17 1083.5,2823.5C 1223.27,2435.51 1363.6,2047.85 1504.5,1660.5C 1505.33,1889.83 1505.83,2119.17 1506,2348.5C 1505.96,2409.1 1513.29,2468.77 1528,2527.5C 1543.82,2585.82 1571.15,2637.82 1610,2683.5C 1702.01,2789.59 1818.51,2848.09 1959.5,2859C 2100.01,2865.95 2223.01,2823.61 2328.5,2732C 2381.49,2683.7 2420.99,2626.2 2447,2559.5C 2468.62,2490.58 2479.12,2419.91 2478.5,2347.5C 2479.5,2029.67 2479.83,1711.67 2479.5,1393.5C 2393.83,1393.5 2308.17,1393.5 2222.5,1393.5C 2222.5,1718.5 2222.5,2043.5 2222.5,2368.5C 2222.56,2411.97 2214.06,2453.64 2197,2493.5C 2154.43,2565.24 2091.26,2604.74 2007.5,2612C 1923.92,2615.12 1856.08,2584.28 1804,2519.5C 1788.72,2498.36 1778.06,2475.03 1772,2449.5C 1767.19,2429.44 1764.19,2409.1 1763,2388.5C 1762.5,2056.83 1762.33,1725.17 1762.5,1393.5C 1645.82,1393.02 1529.15,1393.52 1412.5,1395C 1345.95,1406.68 1300.12,1443.85 1275,1506.5C 1167.68,1821.3 1059.84,2135.97 951.5,2450.5C 826.465,2098.39 701.465,1746.39 576.5,1394.5C 576.5,1394.17 576.5,1393.83 576.5,1393.5C 576.5,1121.83 576.5,850.167 576.5,578.5C 577.496,578.586 578.329,578.252 579,577.5C 579.167,849 579.667,1120.33 580.5,1391.5 Z"/></g>
<g><path style="opacity:1" fill="#fefefe" d="M 2558.5,1393.5 C 2716.17,1393.33 2873.83,1393.5 3031.5,1394C 3090.3,1395.5 3147.97,1404.16 3204.5,1420C 3303.39,1450.24 3378.55,1510.07 3430,1599.5C 3482.49,1698.03 3488.49,1799.37 3448,1903.5C 3421.68,1965.48 3378.52,2011.65 3318.5,2042C 3442.51,2084.35 3520.34,2169.18 3552,2296.5C 3575.43,2409.62 3557.09,2515.29 3497,2613.5C 3430.04,2714.77 3336.87,2777.94 3217.5,2803C 3148.15,2816.28 3078.15,2823.28 3007.5,2824C 2857.83,2824.5 2708.17,2824.67 2558.5,2824.5C 2558.5,2347.5 2558.5,1870.5 2558.5,1393.5 Z"/></g>
<g><path style="opacity:1" fill="#fe6600" d="M 574.5,2148.5 C 479.655,1897.46 384.655,1646.46 289.5,1395.5C 384.665,1394.5 479.999,1394.17 575.5,1394.5C 575.833,1646 575.5,1897.33 574.5,2148.5 Z"/></g>
<g><path style="opacity:1" fill="#fefefe" d="M 2222.5,2368.5 C 2223.5,2044 2223.83,1719.33 2223.5,1394.5C 2308.5,1394.5 2393.5,1394.5 2478.5,1394.5C 2478.5,1712.17 2478.5,2029.83 2478.5,2347.5C 2479.12,2419.91 2468.62,2490.58 2447,2559.5C 2420.99,2626.2 2381.49,2683.7 2328.5,2732C 2223.01,2823.61 2100.01,2865.95 1959.5,2859C 1818.51,2848.09 1702.01,2789.59 1610,2683.5C 1571.15,2637.82 1543.82,2585.82 1528,2527.5C 1513.29,2468.77 1505.96,2409.1 1506,2348.5C 1505.83,2119.17 1505.33,1889.83 1504.5,1660.5C 1363.6,2047.85 1223.27,2435.51 1083.5,2823.5C 996.763,2823.83 910.096,2823.5 823.5,2822.5C 744.741,2607.55 665.408,2392.88 585.5,2178.5C 584.208,2173.62 582.541,2168.95 580.5,2164.5C 579.5,2161.17 578.5,2157.83 577.5,2154.5C 576.89,2153.61 576.557,2152.61 576.5,2151.5C 576.5,1899.17 576.5,1646.83 576.5,1394.5C 701.465,1746.39 826.465,2098.39 951.5,2450.5C 1059.84,2135.97 1167.68,1821.3 1275,1506.5C 1300.12,1443.85 1345.95,1406.68 1412.5,1395C 1529.15,1393.52 1645.82,1393.02 1762.5,1393.5C 1762.33,1725.17 1762.5,2056.83 1763,2388.5C 1764.19,2409.1 1767.19,2429.44 1772,2449.5C 1778.06,2475.03 1788.72,2498.36 1804,2519.5C 1856.08,2584.28 1923.92,2615.12 2007.5,2612C 2091.26,2604.74 2154.43,2565.24 2197,2493.5C 2214.06,2453.64 2222.56,2411.97 2222.5,2368.5 Z"/></g>
<g><path style="opacity:1" fill="#c0cce5" d="M 2478.5,2347.5 C 2478.5,2029.83 2478.5,1712.17 2478.5,1394.5C 2393.5,1394.5 2308.5,1394.5 2223.5,1394.5C 2223.83,1719.33 2223.5,2044 2222.5,2368.5C 2222.5,2043.5 2222.5,1718.5 2222.5,1393.5C 2308.17,1393.5 2393.83,1393.5 2479.5,1393.5C 2479.83,1711.67 2479.5,2029.67 2478.5,2347.5 Z"/></g>
<g><path style="opacity:1" fill="#033494" d="M 2220.5,1397.5 C 2220.67,1720.83 2220.5,2044.17 2220,2367.5C 2219.67,2044.83 2219.33,1722.17 2219,1399.5C 2218.83,1723.19 2218.33,2046.86 2217.5,2370.5C 2216.33,2047 2216.17,1723.33 2217,1399.5C 2217.82,1398.18 2218.98,1397.51 2220.5,1397.5 Z"/></g>
<g><path style="opacity:1" fill="#01329e" d="M 2217.5,2370.5 C 2218.33,2046.86 2218.83,1723.19 2219,1399.5C 2219.33,1722.17 2219.67,2044.83 2220,2367.5C 2220.5,2044.17 2220.67,1720.83 2220.5,1397.5C 2221.83,1720.46 2221.83,2044.79 2220.5,2370.5C 2219.81,2369.97 2219.31,2369.31 2219,2368.5C 2218.67,2370.83 2218.33,2373.17 2218,2375.5C 2217.51,2373.87 2217.34,2372.2 2217.5,2370.5 Z"/></g>
<g><path style="opacity:1" fill="#fe8b3e" d="M 576.5,1393.5 C 576.5,1393.83 576.5,1394.17 576.5,1394.5C 576.5,1646.83 576.5,1899.17 576.5,2151.5C 576.167,2151.5 575.833,2151.5 575.5,2151.5C 575.443,2150.39 575.11,2149.39 574.5,2148.5C 575.5,1897.33 575.833,1646 575.5,1394.5C 479.999,1394.17 384.665,1394.5 289.5,1395.5C 288.957,1395.44 288.624,1395.11 288.5,1394.5C 384.498,1393.5 480.498,1393.17 576.5,1393.5 Z"/></g>
<g><path style="opacity:1" fill="#01329c" d="M 2555.5,2825.5 C 2555.17,2382 2554.17,1938.67 2552.5,1495.5C 2552.34,1492.81 2552.5,1490.15 2553,1487.5C 2553.25,1488.62 2553.75,1489.62 2554.5,1490.5C 2554.83,1490.17 2555.17,1489.83 2555.5,1489.5C 2554.17,1459.54 2554.17,1429.54 2555.5,1399.5C 2556.33,1428.83 2556.83,1458.16 2557,1487.5C 2557.67,1933.17 2557.67,2378.83 2557,2824.5C 2556.62,2825.06 2556.12,2825.39 2555.5,2825.5 Z"/></g>
<g><path style="opacity:1" fill="#043494" d="M 2552.5,1495.5 C 2554.17,1938.67 2555.17,2382 2555.5,2825.5C 2555.72,2826.68 2555.39,2827.68 2554.5,2828.5C 2553.72,2827.27 2553.22,2825.94 2553,2824.5C 2552.5,2381.5 2552.33,1938.5 2552.5,1495.5 Z"/></g>
<g><path style="opacity:1" fill="#00349a" d="M 3039.5,1651.5 C 3068.39,1651.44 3096.39,1656.28 3123.5,1666C 3191.75,1699.01 3218.59,1752.84 3204,1827.5C 3185.49,1890 3143.99,1926.17 3079.5,1936C 3054.34,1940.2 3029.01,1942.53 3003.5,1943C 2944.17,1943.5 2884.83,1943.67 2825.5,1943.5C 2825.5,1846.17 2825.5,1748.83 2825.5,1651.5C 2896.83,1651.5 2968.17,1651.5 3039.5,1651.5 Z"/></g>
<g><path style="opacity:1" fill="#aabadd" d="M 3039.5,1651.5 C 2968.17,1651.5 2896.83,1651.5 2825.5,1651.5C 2825.5,1748.83 2825.5,1846.17 2825.5,1943.5C 2824.5,1846 2824.17,1748.33 2824.5,1650.5C 2896.34,1650.17 2968,1650.5 3039.5,1651.5 Z"/></g>
<g><path style="opacity:1" fill="#bdcbe5" d="M 575.5,2151.5 C 575.833,2151.5 576.167,2151.5 576.5,2151.5C 576.557,2152.61 576.89,2153.61 577.5,2154.5C 576.5,2650 576.167,3145.67 576.5,3641.5C 575.5,3145 575.167,2648.33 575.5,2151.5 Z"/></g>
<g><path style="opacity:1" fill="#00329c" d="M 577.5,2154.5 C 578.5,2157.83 579.5,2161.17 580.5,2164.5C 579.972,2165.72 579.305,2166.89 578.5,2168C 580.167,2659 581.167,3150.17 581.5,3641.5C 581.167,3641.5 580.833,3641.5 580.5,3641.5C 579.667,3152.9 579.167,2664.24 579,2175.5C 578.5,2664.17 578.333,3152.83 578.5,3641.5C 577.833,3641.5 577.167,3641.5 576.5,3641.5C 576.167,3145.67 576.5,2650 577.5,2154.5 Z"/></g>
<g><path style="opacity:1" fill="#013393" d="M 580.5,3641.5 C 579.833,3641.5 579.167,3641.5 578.5,3641.5C 578.333,3152.83 578.5,2664.17 579,2175.5C 579.167,2664.24 579.667,3152.9 580.5,3641.5 Z"/></g>
<g><path style="opacity:1" fill="#033394" d="M 580.5,2164.5 C 582.541,2168.95 584.208,2173.62 585.5,2178.5C 584.778,2178.92 584.278,2179.58 584,2180.5C 583.667,2178.83 583.333,2177.17 583,2175.5C 582.167,2663.67 582.334,3151.67 583.5,3639.5C 583.5,3639.83 583.5,3640.17 583.5,3640.5C 582.833,3640.5 582.5,3640.83 582.5,3641.5C 582.167,3641.5 581.833,3641.5 581.5,3641.5C 581.167,3150.17 580.167,2659 578.5,2168C 579.305,2166.89 579.972,2165.72 580.5,2164.5 Z"/></g>
<g><path style="opacity:1" fill="#00329d" d="M 585.5,2178.5 C 585.214,2180.28 584.547,2181.94 583.5,2183.5C 584.541,2185.79 584.541,2188.12 583.5,2190.5C 583.594,2192.69 584.261,2194.69 585.5,2196.5C 583.501,2677.36 582.834,3158.36 583.5,3639.5C 582.334,3151.67 582.167,2663.67 583,2175.5C 583.333,2177.17 583.667,2178.83 584,2180.5C 584.278,2179.58 584.778,2178.92 585.5,2178.5 Z"/></g>
<g><path style="opacity:1" fill="#003499" d="M 3058.5,2201.5 C 3100.7,2200.65 3141.7,2207.15 3181.5,2221C 3282.67,2265.2 3316.84,2340.37 3284,2446.5C 3269.92,2480.48 3246.76,2506.31 3214.5,2524C 3173.57,2547.24 3129.57,2560.57 3082.5,2564C 3073.53,2565 3064.53,2565.67 3055.5,2566C 2978.83,2566.5 2902.17,2566.67 2825.5,2566.5C 2825.5,2444.83 2825.5,2323.17 2825.5,2201.5C 2903.17,2201.5 2980.83,2201.5 3058.5,2201.5 Z"/></g>
<g><path style="opacity:1" fill="#adbfdf" d="M 3058.5,2201.5 C 2980.83,2201.5 2903.17,2201.5 2825.5,2201.5C 2825.5,2323.17 2825.5,2444.83 2825.5,2566.5C 2824.5,2444.67 2824.17,2322.67 2824.5,2200.5C 2902.67,2200.17 2980.67,2200.5 3058.5,2201.5 Z"/></g>
<g><path style="opacity:1" fill="#7f98d0" d="M 823.5,2822.5 C 910.096,2823.5 996.763,2823.83 1083.5,2823.5C 1040.33,2824.17 997.001,2824.5 953.5,2824.5C 909.828,2824.5 866.495,2823.83 823.5,2822.5 Z"/></g>
<g><path style="opacity:1" fill="#00319d" d="M 3639.5,583.5 C 3639.83,583.5 3640.17,583.5 3640.5,583.5C 3640.5,1602.5 3640.5,2621.5 3640.5,3640.5C 2621.5,3640.5 1602.5,3640.5 583.5,3640.5C 583.5,3640.17 583.5,3639.83 583.5,3639.5C 1602.17,3639.5 2620.83,3639.5 3639.5,3639.5C 3639.5,2620.83 3639.5,1602.17 3639.5,583.5 Z"/></g>
<g><path style="opacity:1" fill="#003591" d="M 3641.5,582.5 C 3641.5,1602.17 3641.5,2621.83 3641.5,3641.5C 2621.83,3641.5 1602.17,3641.5 582.5,3641.5C 582.5,3640.83 582.833,3640.5 583.5,3640.5C 1602.5,3640.5 2621.5,3640.5 3640.5,3640.5C 3640.5,2621.5 3640.5,1602.5 3640.5,583.5C 3640.5,582.833 3640.83,582.5 3641.5,582.5 Z"/></g>
<g><path style="opacity:1" fill="#7e9ac9" d="M 3641.5,576.5 C 3642.5,1598.33 3642.83,2620.33 3642.5,3642.5C 2620.33,3642.83 1598.33,3642.5 576.5,3641.5C 577.167,3641.5 577.833,3641.5 578.5,3641.5C 579.167,3641.5 579.833,3641.5 580.5,3641.5C 580.833,3641.5 581.167,3641.5 581.5,3641.5C 581.833,3641.5 582.167,3641.5 582.5,3641.5C 1602.17,3641.5 2621.83,3641.5 3641.5,3641.5C 3641.5,2621.83 3641.5,1602.17 3641.5,582.5C 3641.5,582.167 3641.5,581.833 3641.5,581.5C 3641.5,581.167 3641.5,580.833 3641.5,580.5C 3641.5,579.833 3641.5,579.167 3641.5,578.5C 3641.5,577.833 3641.5,577.167 3641.5,576.5 Z"/></g>
</svg>
